<svg width="262" height="265" viewBox="0 0 262 265" fill="none" xmlns="http://www.w3.org/2000/svg">
<path d="M27.1602 19.9411C29.5902 16.8211 34.5002 13.0311 35.6902 10.1211ZM27.1602 19.9411C29.4202 16.9111 32.3802 13.4911 35.6902 10.1211ZM27.5502 25.5811C29.2902 22.8911 35.1902 18.8611 40.6802 10.4811ZM27.5502 25.5811C32.5502 20.2511 38.2702 13.9611 40.6802 10.4811ZM27.2902 31.9811C29.8702 27.7911 37.1502 22.8811 45.6602 10.8411ZM27.2902 31.9811C32.1002 26.7311 34.8902 22.3211 45.6602 10.8411ZM27.6902 37.6211C35.4802 30.5311 41.5902 20.4111 51.3102 10.4511ZM27.6902 37.6211C33.7802 31.8611 38.4402 26.0411 51.3102 10.4511ZM27.4302 44.0211C36.1602 32.6211 42.8402 23.1011 56.2902 10.8111ZM27.4302 44.0211C38.0202 32.9011 46.5402 21.9311 56.2902 10.8111ZM27.1602 50.4111C35.4802 41.7911 42.5202 31.3111 59.9702 12.6811ZM27.1602 50.4111C40.5302 35.0511 51.5102 21.7711 59.9702 12.6811ZM27.5602 56.0611C35.7402 45.9811 43.2802 40.3511 61.6702 16.8111ZM27.5602 56.0611C38.1102 42.7711 48.7402 29.5011 61.6702 16.8111ZM27.3002 62.4611C39.4002 52.0811 49.3102 39.3311 63.3802 20.9511ZM27.3002 62.4611C40.8402 45.9611 55.0402 30.4811 63.3802 20.9511ZM27.6902 68.1011C41.6902 52.7811 53.9202 37.3811 63.7802 26.5911ZM27.6902 68.1011C34.9802 59.5011 43.6802 51.4011 63.7802 26.5911ZM27.4302 74.5011C35.1802 64.7011 45.7702 54.9711 63.5102 32.9911ZM27.4302 74.5011C41.8002 59.2111 55.1702 42.0511 63.5102 32.9911ZM27.1702 80.8911C37.9502 72.3511 45.4502 59.9611 63.9102 38.6311ZM27.1702 80.8911C35.0202 72.3711 42.1002 64.3411 63.9102 38.6311ZM27.5602 86.5411C35.4702 78.5611 43.2902 68.0211 63.6502 45.0311ZM27.5602 86.5411C41.9702 71.1611 54.9402 54.9111 63.6502 45.0311ZM27.3002 92.9311C42.4702 78.7811 55.5402 61.5711 63.3902 51.4311ZM27.3002 92.9311C37.7302 80.3511 48.9502 66.5511 63.3902 51.4311ZM27.7002 98.5811C37.3502 87.9311 45.4702 76.0211 63.7802 57.0711ZM27.7002 98.5811C35.6902 89.0711 43.7302 81.2411 63.7802 57.0711ZM27.4402 104.981C40.1802 87.9711 55.7502 71.7511 63.5202 63.4711ZM27.4402 104.981C37.8802 92.9511 48.5802 80.0711 63.5202 63.4711ZM27.1702 111.371C40.6102 95.0911 55.8802 79.8611 63.9102 69.1111ZM27.1702 111.371C40.3102 97.7611 52.4102 82.5111 63.9102 69.1111ZM27.5702 117.021C36.3102 106.891 46.5002 96.8011 63.6502 75.5111ZM27.5702 117.021C40.0302 101.951 53.8402 88.2511 63.6502 75.5111ZM27.3102 123.411C40.0002 110.141 49.3902 97.1511 63.3902 81.9111ZM27.3102 123.411C35.5802 114.341 44.2802 104.121 63.3902 81.9111ZM27.7002 129.061C38.3602 112.781 51.5202 101.851 63.7802 87.5511ZM27.7002 129.061C37.0602 118.651 44.7602 109.541 63.7802 87.5511ZM27.4402 135.461C39.4102 120.151 54.2202 107.401 63.5202 93.9511ZM27.4402 135.461C37.4802 123.091 47.6202 110.841 63.5202 93.9511ZM27.1802 141.851C40.1002 126.111 54.1802 109.411 63.9202 99.5911ZM27.1802 141.851C37.7702 130.281 45.9502 118.251 63.9202 99.5911ZM27.5702 147.501C36.3102 137.091 45.3102 124.301 63.6602 105.991ZM27.5702 147.501C36.4902 138.941 43.7402 129.081 63.6602 105.991ZM27.3102 153.891C38.3402 136.961 53.5202 121.891 63.3902 112.381ZM27.3102 153.891C41.7102 137.571 54.7902 122.721 63.3902 112.381ZM27.7102 159.541C36.4802 148.291 45.5902 139.571 63.7902 118.031ZM27.7102 159.541C37.4002 148.491 47.4402 137.001 63.7902 118.031ZM27.4402 165.931C43.3102 147.391 57.5402 133.081 63.5302 124.431ZM27.4402 165.931C39.0802 152.861 49.9802 141.051 63.5302 124.431ZM27.1802 172.331C41.6302 156.021 54.7602 143.071 63.9202 130.071ZM27.1802 172.331C38.1702 159.341 47.4802 149.241 63.9202 130.071ZM27.5802 177.981C34.9602 167.071 42.9202 159.591 63.6602 136.471ZM27.5802 177.981C39.9402 163.281 52.1602 149.151 63.6602 136.471ZM27.3202 184.371C36.0802 173.511 44.7602 164.871 63.4002 142.861ZM27.3202 184.371C39.1802 171.371 52.1202 156.201 63.4002 142.861ZM27.7102 190.021C40.2202 178.461 49.2302 162.821 63.7902 148.511ZM27.7102 190.021C39.6902 174.801 53.9102 159.221 63.7902 148.511ZM27.4502 196.411C39.9102 184.551 50.1802 170.301 63.5302 154.911ZM27.4502 196.411C38.8002 183.581 50.4602 169.501 63.5302 154.911ZM27.1902 202.811C34.7602 193.851 47.2802 180.721 63.9302 160.551ZM27.1902 202.811C36.3002 192.891 43.6802 183.881 63.9302 160.551ZM27.5802 208.461C33.7902 198.481 40.5902 191.761 63.6702 166.951ZM27.5802 208.461C36.4602 198.331 44.5702 189.941 63.6702 166.951ZM27.3202 214.851C36.6202 205.411 45.2802 196.161 63.4002 173.341ZM27.3202 214.851C35.4902 205.831 44.3102 195.741 63.4002 173.341ZM27.7202 220.501C36.5902 212.411 42.2502 203.741 63.8002 178.991ZM27.7202 220.501C35.5802 211.521 42.8602 204.371 63.8002 178.991ZM27.4502 226.891C35.4302 216.621 43.9502 208.231 63.5402 185.381ZM27.4502 226.891C40.9502 211.781 55.4902 195.651 63.5402 185.381ZM27.1902 233.291C37.8702 217.991 50.1202 206.911 63.9302 191.031ZM27.1902 233.291C38.2002 220.931 49.9802 206.551 63.9302 191.031ZM27.5902 238.931C37.0302 229.291 45.6102 220.261 63.6702 197.431ZM27.5902 238.931C40.1102 225.001 52.4002 210.901 63.6702 197.431ZM28.6402 243.821C36.8602 234.491 45.0102 222.711 63.4102 203.821ZM28.6402 243.821C42.0302 227.711 54.6602 212.551 63.4102 203.821ZM29.0302 249.471C39.9602 233.641 55.3802 221.791 63.8002 209.471ZM29.0302 249.471C38.8402 238.121 49.2702 225.631 63.8002 209.471ZM32.7102 251.341C41.6702 242.131 48.4502 230.831 63.5402 215.861ZM32.7102 251.341C42.9502 238.911 53.8802 225.581 63.5402 215.861ZM37.6902 251.701C44.0502 246.851 47.7602 239.731 63.9402 221.511ZM37.6902 251.701C44.9302 244.791 50.7902 235.571 63.9402 221.511ZM42.6802 252.061C52.9502 243.671 60.8402 232.831 63.6802 227.911ZM42.6802 252.061C49.5902 244.851 54.4602 238.191 63.6802 227.911ZM48.3202 251.661C50.9002 247.901 58.2502 243.001 63.4102 234.301ZM48.3202 251.661C51.5802 248.061 55.6602 243.031 63.4102 234.301ZM53.3102 252.021C55.2802 248.101 59.1302 244.191 61.8402 242.211ZM53.3102 252.021C55.0102 250.331 57.6102 247.551 61.8402 242.211Z" stroke="#7D5331" stroke-width="0.5" stroke-linecap="round"/>
<path d="M35.1584 10.0002C40.0684 11.1802 47.3484 10.3202 52.6884 10.0002M35.1584 10.0002C41.8784 10.2102 48.2984 10.0202 52.6884 10.0002M35.1584 10.0002C29.9384 9.0302 26.5284 11.3102 26.3984 18.7602M35.1584 10.0002C30.5784 12.2002 26.5784 11.7102 26.3984 18.7602M52.6884 10.0002C56.9784 10.1602 60.3484 12.9102 61.4584 18.7602M52.6884 10.0002C59.1784 9.2702 60.3684 13.8302 61.4584 18.7602M61.4584 18.7602C61.4984 88.1202 61.3484 154.99 61.4584 242.11M61.4584 18.7602C59.6384 88.6902 60.9384 159.49 61.4584 242.11M61.4584 242.11C62.5784 246.38 58.9884 251.96 52.6884 250.87M61.4584 242.11C59.6584 246.35 56.9884 250.68 52.6884 250.87M52.6884 250.87C48.2584 252.54 42.1784 251.9 35.1584 250.87M52.6884 250.87C47.5684 250.65 43.8584 251.42 35.1584 250.87M35.1584 250.87C27.6684 249.25 27.3984 249.42 26.3984 242.11M35.1584 250.87C27.1984 252.12 26.7384 248.55 26.3984 242.11M26.3984 242.11C28.6584 179.24 28.4384 114.97 26.3984 18.7602M26.3984 242.11C26.5484 162.26 27.0384 82.8602 26.3984 18.7602" stroke="#60503E" stroke-linecap="round"/>
<path d="M242.063 199.047C243.353 202.377 247.013 203.437 251.883 207.577ZM242.063 199.047C243.923 200.937 245.573 202.437 251.883 207.577ZM236.423 199.437C238.753 202.527 243.523 205.327 251.523 212.567ZM236.423 199.437C241.763 205.177 247.773 209.247 251.523 212.567ZM230.023 199.177C236.443 207.697 245.883 214.017 251.163 217.547ZM230.023 199.177C236.363 204.057 243.863 209.797 251.163 217.547ZM224.383 199.577C231.243 205.967 239.253 210.697 251.553 223.197ZM224.383 199.577C230.913 204.817 235.733 210.247 251.553 223.197ZM217.983 199.317C231.633 209.237 244.543 221.937 251.193 228.177ZM217.983 199.317C227.603 207.697 238.023 216.267 251.193 228.177ZM211.593 199.047C226.103 210.987 239.573 224.727 249.323 231.857ZM211.593 199.047C223.653 210.837 237.383 221.617 249.323 231.857ZM205.943 199.447C215.493 207.677 225.023 217.377 245.193 233.557ZM205.943 199.447C220.213 211.227 233.103 224.327 245.193 233.557ZM199.543 199.187C212.823 211.877 225.813 221.267 241.053 235.267ZM199.543 199.187C208.623 207.457 218.843 216.157 241.053 235.267ZM193.903 199.577C210.183 210.237 221.113 223.397 235.413 235.667ZM193.903 199.577C204.313 208.937 213.423 216.637 235.413 235.667ZM187.503 199.317C202.813 211.287 215.563 226.097 229.013 235.397ZM187.503 199.317C199.873 209.357 212.123 219.497 229.013 235.397ZM181.113 199.057C196.853 211.977 213.553 226.057 223.373 235.797ZM181.113 199.057C192.683 209.647 204.713 217.827 223.373 235.797ZM175.463 199.447C185.873 208.187 198.663 217.187 216.973 235.537ZM175.463 199.447C184.013 208.367 193.883 215.617 216.973 235.537ZM169.073 199.187C186.003 210.217 201.073 225.397 210.573 235.277ZM169.073 199.187C185.393 213.587 200.243 226.667 210.573 235.277ZM163.423 199.587C174.673 208.357 183.383 217.467 204.933 235.667ZM163.423 199.587C174.473 209.277 185.963 219.317 204.933 235.667ZM157.023 199.327C175.573 215.187 189.883 229.417 198.533 235.407ZM157.023 199.327C170.103 210.957 181.913 221.857 198.533 235.407ZM150.633 199.057C166.933 213.507 179.893 226.637 192.893 235.797ZM150.633 199.057C163.613 210.047 173.723 219.367 192.893 235.797ZM144.983 199.457C155.893 206.837 163.373 214.797 186.493 235.537ZM144.983 199.457C159.683 211.817 173.813 224.037 186.493 235.537ZM138.593 199.197C149.453 207.957 158.093 216.637 180.093 235.277ZM138.593 199.197C151.593 211.057 166.763 223.997 180.093 235.277ZM132.943 199.587C144.493 212.097 160.143 221.107 174.453 235.667ZM132.943 199.587C148.163 211.567 163.743 225.787 174.453 235.667ZM126.543 199.327C138.403 211.787 152.663 222.067 168.053 235.407ZM126.543 199.327C139.383 210.677 153.463 222.337 168.053 235.407ZM120.153 199.067C129.103 206.637 142.243 219.157 162.413 235.807ZM120.153 199.067C130.073 208.177 139.083 215.557 162.413 235.807ZM114.503 199.457C124.483 205.667 131.203 212.467 156.013 235.547ZM114.503 199.457C124.633 208.337 133.023 216.447 156.013 235.547ZM108.113 199.197C117.553 208.497 126.803 217.157 149.623 235.277ZM108.113 199.197C117.133 207.367 127.223 216.187 149.623 235.277ZM102.463 199.597C110.553 208.467 119.223 214.127 143.973 235.677ZM102.463 199.597C111.433 207.457 118.593 214.737 143.973 235.677ZM96.0728 199.327C106.343 207.307 114.733 215.827 137.573 235.417ZM96.0728 199.327C111.183 212.827 127.303 227.367 137.573 235.417ZM89.6728 199.067C104.973 209.747 116.043 221.997 131.933 235.807ZM89.6728 199.067C102.033 210.077 116.413 221.857 131.933 235.807ZM84.0228 199.467C93.6728 208.907 102.703 217.487 125.533 235.547ZM84.0228 199.467C97.9628 211.987 112.063 224.277 125.533 235.547ZM77.6328 199.207C87.3528 207.767 99.5328 216.257 119.143 235.287ZM77.6328 199.207C94.3328 213.097 110.083 226.247 119.143 235.287ZM71.9828 199.597C88.3728 210.997 100.753 226.887 113.493 235.677ZM71.9828 199.597C83.7728 209.787 96.7028 220.607 113.493 235.677ZM65.5928 199.337C76.4528 209.757 89.4228 217.987 107.093 235.417ZM65.5928 199.337C80.1628 211.467 95.6028 224.237 107.093 235.417ZM59.1928 199.077C66.7128 207.827 76.4828 213.827 101.453 235.817ZM59.1928 199.077C69.2428 209.137 81.6328 217.757 101.453 235.817ZM53.5428 199.467C68.7628 215.857 86.5028 229.737 95.0528 235.557ZM53.5428 199.467C66.1528 210.787 78.0728 220.227 95.0528 235.557ZM47.1528 199.207C57.5028 207.557 69.1228 220.747 88.6628 235.287ZM47.1528 199.207C56.0928 207.237 66.4228 215.917 88.6628 235.287ZM41.5028 199.607C56.4828 210.377 71.5528 224.177 83.0128 235.687ZM41.5028 199.607C50.3528 207.757 60.9528 217.247 83.0128 235.687ZM35.1128 199.337C47.6428 210.317 62.6028 224.027 76.6228 235.427ZM35.1128 199.337C49.5728 212.397 64.6328 225.467 76.6228 235.427ZM28.7128 199.077C37.3428 207.207 48.2528 214.757 70.9728 235.817ZM28.7128 199.077C42.7128 210.637 57.1528 224.377 70.9728 235.817ZM23.0728 199.477C34.2128 208.787 40.9428 214.467 64.5728 235.557ZM23.0728 199.477C31.0628 207.147 41.1328 213.807 64.5728 235.557ZM18.1828 200.527C27.9428 207.327 34.7928 217.377 58.1828 235.297ZM18.1828 200.527C28.7028 209.697 39.7728 218.367 58.1828 235.297ZM12.5328 200.917C25.3428 211.317 42.2928 226.657 52.5328 235.687ZM12.5328 200.917C27.6528 213.047 40.6128 225.987 52.5328 235.687ZM10.6628 204.597C24.0128 216.767 36.9728 226.527 46.1428 235.427ZM10.6628 204.597C21.2728 213.077 30.7428 221.827 46.1428 235.427ZM10.3028 209.577C19.3428 219.727 30.9728 225.017 40.4928 235.827ZM10.3028 209.577C19.2828 217.417 26.8528 224.917 40.4928 235.827ZM9.94281 214.567C16.3028 221.897 24.7928 227.777 34.0928 235.567ZM9.94281 214.567C16.7528 219.807 23.8228 226.637 34.0928 235.567ZM10.3428 220.207C14.1628 224.957 18.8628 227.477 27.7028 235.297ZM10.3428 220.207C17.2228 226.637 22.3728 231.307 27.7028 235.297ZM9.9828 225.197C13.2528 227.457 15.3928 230.617 19.7928 233.727ZM9.9828 225.197C12.0228 227.957 14.6328 229.127 19.7928 233.727Z" stroke="#7D5331" stroke-width="0.5" stroke-linecap="round"/>
<path d="M252.002 207.046C251.452 214.996 253.432 221.406 252.002 224.576M252.002 207.046C252.192 210.776 252.162 215.436 252.002 224.576M252.002 207.046C252.942 202.066 250.002 197.756 243.242 198.286M252.002 207.046C252.802 199.046 249.932 196.576 243.242 198.286M252.002 224.576C250.352 229.356 249.232 233.836 243.242 233.346M252.002 224.576C252.622 230.836 247.432 234.356 243.242 233.346M243.242 233.346C185.022 234.226 127.912 235.816 19.8916 233.346M243.242 233.346C179.182 233.016 115.352 233.346 19.8916 233.346M19.8916 233.346C14.1816 232.126 11.6716 230.976 11.1316 224.576M19.8916 233.346C15.8616 231.606 12.0416 232.456 11.1316 224.576M11.1316 224.576C12.6116 218.816 9.70161 214.126 11.1316 207.046M11.1316 224.576C11.8916 217.116 10.2216 210.566 11.1316 207.046M11.1316 207.046C9.64161 202.026 12.9316 200.186 19.8916 198.286M11.1316 207.046C12.4616 200.076 15.6316 197.296 19.8916 198.286M19.8916 198.286C82.9916 197.236 147.262 197.976 243.242 198.286M19.8916 198.286C103.182 198.286 186.432 199.676 243.242 198.286" stroke="#60503E" stroke-linecap="round"/>
<path d="M201.871 23.8981C203.581 21.0481 205.781 18.9081 210.401 14.0781ZM201.871 23.8981C204.931 21.4081 206.931 17.4681 210.401 14.0781ZM202.261 29.5381C204.741 25.7381 208.151 22.1481 215.391 14.4381ZM202.261 29.5381C205.671 26.8481 209.351 22.4681 215.391 14.4381ZM202.001 35.9381C206.771 26.9081 212.161 21.8281 220.371 14.7981ZM202.001 35.9381C206.201 31.8881 209.261 26.7581 220.371 14.7981ZM202.401 41.5781C212.291 32.2281 218.371 23.0781 226.021 14.4081ZM202.401 41.5781C208.391 33.8481 215.681 26.3781 226.021 14.4081ZM202.141 47.9781C213.941 36.8881 222.051 24.0981 231.001 14.7681ZM202.141 47.9781C210.301 38.0281 219.481 27.4481 231.001 14.7681ZM201.871 54.3681C215.141 41.1281 226.031 26.5081 234.681 16.6381ZM201.871 54.3681C213.471 41.7981 223.911 27.4781 234.681 16.6381ZM202.271 60.0181C216.821 44.1581 227.711 28.8081 236.381 20.7681ZM202.271 60.0181C212.811 48.6181 221.741 37.1281 236.381 20.7681ZM202.011 66.4181C211.931 56.8881 218.101 47.3281 238.091 24.9081ZM202.011 66.4181C214.591 50.9481 229.101 36.5581 238.091 24.9081ZM202.401 72.0581C208.301 63.8481 219.551 52.1181 238.491 30.5481ZM202.401 72.0581C212.481 59.5881 221.971 49.3381 238.491 30.5481ZM202.141 78.4581C211.121 71.3181 218.211 61.9881 238.221 36.9481ZM202.141 78.4581C211.141 67.4981 221.041 56.9181 238.221 36.9481ZM201.881 84.8481C212.181 72.9181 221.911 65.9581 238.621 42.5881ZM201.881 84.8481C211.461 75.3481 219.761 64.1381 238.621 42.5881ZM202.271 90.4981C214.581 74.0381 227.601 58.1481 238.361 48.9881ZM202.271 90.4981C213.641 79.4481 222.631 67.6481 238.361 48.9881ZM202.011 96.8881C212.381 84.2381 225.581 70.9481 238.101 55.3881ZM202.011 96.8881C215.211 81.7281 228.821 67.2481 238.101 55.3881ZM202.411 102.538C212.321 90.1881 226.451 74.6581 238.491 61.0281ZM202.411 102.538C216.021 87.9581 228.541 72.8081 238.491 61.0281ZM202.151 108.938C217.241 92.5781 229.891 76.7381 238.231 67.4281ZM202.151 108.938C212.111 96.0781 224.221 84.2181 238.231 67.4281ZM201.881 115.328C212.721 99.4381 225.301 85.1381 238.621 73.0681ZM201.881 115.328C213.391 100.598 227.131 86.6281 238.621 73.0681ZM202.281 120.978C210.381 110.638 221.871 99.4781 238.361 79.4681ZM202.281 120.978C214.211 107.828 225.801 94.4181 238.361 79.4681ZM202.021 127.368C213.971 112.468 227.631 97.4781 238.101 85.8681ZM202.021 127.368C211.871 115.168 222.001 102.178 238.101 85.8681ZM202.411 133.018C214.541 119.278 222.171 110.038 238.491 91.5081ZM202.411 133.018C216.101 117.428 229.401 102.488 238.491 91.5081ZM202.151 139.418C211.491 129.048 221.621 116.498 238.231 97.9081ZM202.151 139.418C211.671 128.278 220.491 117.838 238.231 97.9081ZM201.891 145.808C211.321 136.678 221.091 124.838 238.631 103.548ZM201.891 145.808C215.141 130.638 229.971 114.058 238.631 103.548ZM202.281 151.458C210.831 142.348 222.361 130.768 238.371 109.948ZM202.281 151.458C213.841 139.708 223.771 126.038 238.371 109.948ZM202.021 157.848C215.261 139.768 231.641 126.508 238.101 116.338ZM202.021 157.848C214.981 143.578 227.511 130.008 238.101 116.338ZM202.421 163.498C208.471 153.588 215.811 146.668 238.501 121.988ZM202.421 163.498C210.021 154.218 218.941 146.278 238.501 121.988ZM202.151 169.888C212.861 155.018 227.071 142.888 238.241 128.388ZM202.151 169.888C212.301 157.088 224.571 144.258 238.241 128.388ZM201.891 176.288C211.571 164.228 223.681 151.588 238.631 134.028ZM201.891 176.288C210.801 164.708 220.551 155.308 238.631 134.028ZM202.291 181.938C212.831 169.618 223.831 153.668 238.371 140.428ZM202.291 181.938C215.241 166.568 229.951 150.168 238.371 140.428ZM202.031 188.328C210.291 177.468 218.421 169.858 238.111 146.818ZM202.031 188.328C216.171 171.678 230.961 154.518 238.111 146.818ZM202.421 193.978C210.401 180.808 222.911 172.558 238.501 152.468ZM202.421 193.978C209.961 185.158 216.351 177.148 238.501 152.468ZM202.161 200.368C214.841 187.458 225.751 172.138 238.241 158.868ZM202.161 200.368C212.041 189.138 220.921 178.178 238.241 158.868ZM201.901 206.768C212.201 198.248 220.731 184.848 238.641 164.508ZM201.901 206.768C209.201 198.448 216.561 189.788 238.641 164.508ZM202.291 212.418C214.791 197.748 230.501 181.698 238.381 170.908ZM202.291 212.418C209.641 201.778 219.031 192.838 238.381 170.908ZM202.031 218.808C214.981 205.568 227.521 190.028 238.111 177.298ZM202.031 218.808C213.711 206.568 224.531 192.378 238.111 177.298ZM202.431 224.458C214.971 210.258 226.621 197.238 238.511 182.948ZM202.431 224.458C211.751 213.958 223.061 200.958 238.511 182.948ZM202.161 230.848C216.621 216.698 229.051 200.768 238.251 189.338ZM202.161 230.848C210.491 220.928 218.511 211.998 238.251 189.338ZM201.901 237.248C212.911 224.958 223.071 212.738 238.641 194.988ZM201.901 237.248C214.721 223.688 226.871 208.478 238.641 194.988ZM202.301 242.888C216.021 226.198 231.011 210.288 238.381 201.388ZM202.301 242.888C215.311 228.558 228.001 212.698 238.381 201.388ZM203.351 247.778C209.891 237.718 218.001 228.818 238.121 207.778ZM203.351 247.778C212.061 239.388 219.011 229.268 238.121 207.778ZM203.741 253.428C212.051 246.238 220.381 237.528 238.511 213.428ZM203.741 253.428C212.011 243.378 221.961 232.948 238.511 213.428ZM207.421 255.298C215.871 245.978 225.061 232.338 238.251 219.818ZM207.421 255.298C213.891 247.328 219.961 240.558 238.251 219.818ZM212.401 255.658C217.381 247.418 226.521 240.068 238.651 225.468ZM212.401 255.658C218.411 248.118 225.391 241.878 238.651 225.468ZM217.391 256.018C221.151 249.368 226.651 246.098 238.391 231.868ZM217.391 256.018C223.121 248.438 230.061 241.498 238.391 231.868ZM223.031 255.618C226.981 252.348 230.281 245.538 238.121 238.258ZM223.031 255.618C227.341 249.898 232.131 244.748 238.121 238.258ZM228.021 255.978C230.341 255.248 232.041 250.778 236.551 246.168ZM228.021 255.978C230.461 253.258 234.091 249.838 236.551 246.168Z" stroke="#7D5331" stroke-width="0.5" stroke-linecap="round"/>
<path d="M209.87 13.9599C215.31 14.6899 220.24 13.4999 227.4 13.9599M209.87 13.9599C215.52 13.3399 219.38 14.6499 227.4 13.9599M209.87 13.9599C205.16 14.0299 202.48 18.7099 201.11 22.7199M209.87 13.9599C202.43 12.2599 202.08 16.9199 201.11 22.7199M227.4 13.9599C231.68 15.1099 237.89 15.8799 236.17 22.7199M227.4 13.9599C231.3 14.8399 234.79 16.0399 236.17 22.7199M236.17 22.7199C236.07 75.8799 234.38 131.35 236.17 246.07M236.17 22.7199C235.88 111.1 235.61 200.88 236.17 246.07M236.17 246.07C236.69 251.8 232.63 253.97 227.4 254.83M236.17 246.07C236.71 253.99 234.2 253.03 227.4 254.83M227.4 254.83C222.72 256.33 217.13 253.58 209.87 254.83M227.4 254.83C222.96 254.38 218.05 254.62 209.87 254.83M209.87 254.83C204.08 254.27 200.47 251.46 201.11 246.07M209.87 254.83C202.76 255.11 201.32 252.74 201.11 246.07M201.11 246.07C201.45 176 201.24 109.31 201.11 22.7199M201.11 246.07C199.93 173.93 199.28 100.95 201.11 22.7199" stroke="#60503E" stroke-linecap="round"/>
<path d="M240.93 26.0273C241.95 28.7373 244.4 30.1973 250.75 34.5573ZM240.93 26.0273C243.76 28.0473 246.2 30.6273 250.75 34.5573ZM235.29 26.4173C240.57 30.7173 240.79 34.5873 250.39 39.5473ZM235.29 26.4173C238.42 30.1573 243.12 32.7973 250.39 39.5473ZM228.89 26.1573C237.72 31.6873 246.03 38.1173 250.03 44.5273ZM228.89 26.1573C234.14 32.2973 240.1 36.2073 250.03 44.5273ZM223.25 26.5573C231.35 32.8773 240.08 42.1073 250.42 50.1773ZM223.25 26.5573C233.36 35.1773 242.68 44.3173 250.42 50.1773ZM216.85 26.2973C226.62 33.8373 239.51 45.6773 250.06 55.1573ZM216.85 26.2973C228.42 37.2073 240.57 47.1173 250.06 55.1573ZM210.46 26.0273C225.32 39.8073 239.68 51.1773 248.19 58.8373ZM210.46 26.0273C222.14 35.0373 232.86 46.1573 248.19 58.8373ZM204.81 26.4273C219.67 36.3573 232.92 48.0273 244.06 60.5373ZM204.81 26.4273C218.54 37.0673 231.5 49.9273 244.06 60.5373ZM198.41 26.1673C208.76 34.2673 219.91 45.7573 239.92 62.2473ZM198.41 26.1673C211.56 38.0973 224.97 49.6773 239.92 62.2473ZM192.77 26.5573C207.67 38.5173 222.66 52.1773 234.28 62.6473ZM192.77 26.5573C204.97 36.4073 217.97 46.5373 234.28 62.6473ZM186.37 26.2973C200.11 38.4273 209.35 46.0573 227.88 62.3773ZM186.37 26.2973C201.96 39.9873 216.9 53.2873 227.88 62.3773ZM179.98 26.0373C190.54 35.5573 203.29 45.8473 222.24 62.7773ZM179.98 26.0373C191.29 35.7273 201.94 44.7073 222.24 62.7773ZM174.33 26.4273C183.3 35.6973 194.96 45.3273 215.84 62.5173ZM174.33 26.4273C189.23 39.4373 205.54 54.0273 215.84 62.5173ZM167.94 26.1673C177.04 34.7173 188.62 46.2473 209.44 62.2573ZM167.94 26.1673C179.68 37.7273 193.35 47.6573 209.44 62.2573ZM162.29 26.5673C180.38 39.7973 193.64 56.1773 203.8 62.6473ZM162.29 26.5673C176.56 39.5273 190.13 52.0573 203.8 62.6473ZM155.89 26.3073C165.8 32.3573 172.72 39.6973 197.4 62.3873ZM155.89 26.3073C165.17 33.9073 173.11 42.8273 197.4 62.3873ZM149.5 26.0373C164.62 36.9673 177 51.3873 191.76 62.7773ZM149.5 26.0373C162.54 36.3873 175.61 48.8673 191.76 62.7773ZM143.85 26.4373C155.7 35.9173 168.12 47.8373 185.36 62.5173ZM143.85 26.4373C155.24 35.1773 164.46 44.7573 185.36 62.5173ZM137.46 26.1773C149.77 36.7173 165.72 47.7173 178.96 62.2573ZM137.46 26.1773C152.82 39.1273 169.22 53.8373 178.96 62.2573ZM131.81 26.5673C142.68 34.8373 150.29 42.9673 173.32 62.6473ZM131.81 26.5673C148.46 40.7173 165.63 55.4973 173.32 62.6473ZM125.41 26.3073C138.58 34.2873 146.83 46.7973 166.92 62.3873ZM125.41 26.3073C134.23 33.8473 142.24 40.2273 166.92 62.3873ZM119.02 26.0473C132.19 38.9373 147.76 50.0773 161.28 62.7873ZM119.02 26.0473C130.45 36.1073 141.62 45.1673 161.28 62.7873ZM113.37 26.4373C121.71 36.5773 134.92 44.9473 154.88 62.5273ZM113.37 26.4373C121.54 33.6073 130.05 40.8373 154.88 62.5273ZM106.98 26.1773C121.64 38.6773 137.69 54.3873 148.49 62.2573ZM106.98 26.1773C117.61 33.5173 126.56 42.9173 148.49 62.2573ZM101.33 26.5773C114.58 39.5273 130.11 52.0673 142.84 62.6573ZM101.33 26.5773C113.57 38.2573 127.76 49.0673 142.84 62.6573ZM94.94 26.3073C109.13 38.8573 122.15 50.5073 136.44 62.3973ZM94.94 26.3073C105.43 35.6373 118.43 46.9473 136.44 62.3973ZM88.54 26.0473C102.96 40.7373 119.17 53.4173 130.8 62.7873ZM88.54 26.0473C98.63 34.5273 107.73 42.6973 130.8 62.7873ZM82.89 26.4473C94.97 37.2673 106.98 47.2373 124.4 62.5273ZM82.89 26.4473C96.2 39.0373 111.15 50.9673 124.4 62.5273ZM76.5 26.1873C93.19 39.9073 109.1 54.8873 118.01 62.2673ZM76.5 26.1873C90.83 39.1973 106.69 51.8873 118.01 62.2673ZM70.85 26.5773C81.24 33.3973 90.48 41.7973 112.36 62.6573ZM70.85 26.5773C79.58 35.5873 90.03 42.8273 112.36 62.6573ZM64.46 26.3173C71.97 34.9073 80.99 43.5073 105.96 62.3973ZM64.46 26.3173C74.88 34.9273 85.69 45.2073 105.96 62.3973ZM58.06 26.0573C69.44 36.2673 85.12 47.2273 100.32 62.7973ZM58.06 26.0573C67.49 33.7773 75.7 41.0873 100.32 62.7973ZM52.41 26.4473C63.48 33.9973 73.69 45.6273 93.92 62.5373ZM52.41 26.4473C62.51 34.7373 71.37 43.9873 93.92 62.5373ZM46.02 26.1873C56.74 33.4973 63.99 42.4573 87.53 62.2673ZM46.02 26.1873C58.5 36.2173 70.3 47.3673 87.53 62.2673ZM40.37 26.5873C50.71 36.4873 64.6 45.9373 81.88 62.6673ZM40.37 26.5873C53.7 37.5773 66.35 48.8973 81.88 62.6673ZM33.98 26.3173C40.39 34.6873 52.77 42.0773 75.49 62.4073ZM33.98 26.3173C46.58 37.5073 60.28 50.4173 75.49 62.4073ZM27.58 26.0573C40.69 37.4473 56.13 48.6473 69.84 62.7973ZM27.58 26.0573C40.55 37.3473 51.4 46.6373 69.84 62.7973ZM21.94 26.4573C33.14 33.2173 41.85 42.9873 63.44 62.5373ZM21.94 26.4573C31.99 37.0473 43.9 45.0973 63.44 62.5373ZM17.05 27.5073C29.44 37.6373 42.64 47.0373 57.05 62.2773ZM17.05 27.5073C28.09 36.3373 37.39 46.1273 57.05 62.2773ZM11.4 27.8973C24.99 39.8873 37.14 53.3273 51.4 62.6673ZM11.4 27.8973C26.08 42.3773 42.65 54.8073 51.4 62.6673ZM9.53 31.5773C17.76 37.7173 25.8 44.4173 45.01 62.4073ZM9.53 31.5773C21.1 41.2473 32.02 51.6873 45.01 62.4073ZM9.17 36.5573C14.82 43.0773 22.8 46.4773 39.36 62.8073ZM9.17 36.5573C20.49 47.8873 33.35 58.1773 39.36 62.8073ZM8.81 41.5473C18.84 47.2473 24.02 56.1073 32.96 62.5473ZM8.81 41.5473C13.58 46.8673 18.61 49.6773 32.96 62.5473ZM9.20999 47.1873C13.97 49.5373 16.8 51.6073 26.57 62.2773ZM9.20999 47.1873C14.45 51.6573 21.02 57.5073 26.57 62.2773ZM8.84999 52.1773C12.06 52.9573 12.51 57.5973 18.66 60.7073ZM8.84999 52.1773C11.49 54.8273 14.54 57.0873 18.66 60.7073Z" stroke="#7D5331" stroke-width="0.5" stroke-linecap="round"/>
<path d="M250.869 34.0281C250.729 38.8181 249.629 41.0481 250.869 51.5581M250.869 34.0281C250.569 39.4981 251.389 46.3381 250.869 51.5581M250.869 34.0281C251.379 26.2281 249.799 23.6481 242.109 25.2681M250.869 34.0281C252.919 27.8381 250.229 25.0881 242.109 25.2681M250.869 51.5581C250.569 55.7881 249.039 62.1581 242.109 60.3281M250.869 51.5581C249.349 58.3281 249.689 58.3781 242.109 60.3281M242.109 60.3281C154.439 60.9081 67.5392 61.9581 18.7592 60.3281M242.109 60.3281C157.639 61.9681 72.7992 61.3081 18.7592 60.3281M18.7592 60.3281C11.4492 60.1581 8.36921 57.5181 9.99921 51.5581M18.7592 60.3281C14.5892 60.5981 12.1792 59.0581 9.99921 51.5581M9.99921 51.5581C10.4192 44.8981 8.88921 37.2081 9.99921 34.0281M9.99921 51.5581C9.52921 46.1281 9.28921 40.0981 9.99921 34.0281M9.99921 34.0281C8.54921 27.8181 14.8992 23.7881 18.7592 25.2681M9.99921 34.0281C8.79921 26.5181 12.6492 24.4281 18.7592 25.2681M18.7592 25.2681C74.4092 24.9081 130.689 25.1981 242.109 25.2681M18.7592 25.2681C82.7092 24.2581 146.829 24.1581 242.109 25.2681" stroke="#60503E" stroke-linecap="round"/>
</svg>
