<svg width="304" height="307" viewBox="0 0 304 307" fill="none" xmlns="http://www.w3.org/2000/svg">
<path fill-rule="evenodd" clip-rule="evenodd" d="M155.77 31.6266L188.02 12.6066L202.29 6.40656L215.64 4.10656L228.36 2.63656L244.3 4.87656L255.88 9.09656L279.93 23.9866L288.53 37.0266L294.41 48.4266L300.34 63.6766L301.87 84.8866L301.23 101.537L299.08 122.657L294.11 140.627L285.12 158.757L273.86 176.347L260.97 199.757L239.12 223.227L200.76 262.927L174.04 287.827L148.67 304.887L139.88 301.617L120.05 287.207L98.1598 264.887L55.3398 222.357L34.6598 200.177L22.5298 175.587L11.7198 150.997L9.34984 129.527L0.0898438 92.4866L0.529831 76.0266L6.82983 59.8266L11.9698 44.9166L17.5698 31.9566L27.6698 20.9166L43.5698 13.8766L55.9898 5.48656L69.8298 1.40656L85.5198 0.976562L114.18 3.26656L126.63 10.6766L153.5 33.8166" fill="#CF0221"/>
<path d="M155.22 33.1678C162.58 28.4978 183.5 9.20777 200.2 5.63777C216.91 2.05777 239.55 4.39777 255.46 11.7178C271.37 19.0278 288.74 31.0378 295.68 49.5178C302.62 67.9978 302.57 97.6578 297.08 122.588C291.59 147.518 284.49 170.448 262.72 199.108C240.95 227.768 188.76 278.828 166.47 294.538C144.18 310.248 150.74 309.258 128.96 293.368C107.18 277.488 56.7896 229.788 35.7896 199.228C14.7796 168.678 7.20958 135.468 2.94958 110.048C-1.32042 84.6378 1.56959 64.0678 10.1896 46.7378C18.8196 29.3978 37.6796 12.8678 54.6796 6.03777C71.6796 -0.782228 95.3296 1.25777 112.18 5.77777C129.03 10.2978 148.59 28.4478 155.78 33.1578M153.86 31.9078C161.54 27.3878 185.81 10.6378 202.59 6.92777C219.37 3.22777 238.97 2.94777 254.53 9.69777C270.08 16.4478 288.56 28.5578 295.91 47.4278C303.27 66.3078 304.47 97.7978 298.66 122.958C292.84 148.118 282.92 169.928 261.05 198.398C239.18 226.868 189.11 278.088 167.44 293.778C145.77 309.478 152.65 308.498 131.03 292.568C109.41 276.648 58.9596 228.678 37.6996 198.248C16.4296 167.808 7.97958 135.598 3.44958 109.958C-1.08042 84.3178 1.64959 61.8678 10.5196 44.3978C19.3896 26.9378 39.7896 11.7178 56.6696 5.18777C73.5496 -1.34223 95.3196 0.637773 111.79 5.22777C128.25 9.81777 148.14 27.9978 155.47 32.7478" stroke="#A61E4D" stroke-width="2" stroke-linecap="round"/>
</svg>
