<svg width="980" height="980" viewBox="0 0 980 980" fill="none" xmlns="http://www.w3.org/2000/svg">
<path fill-rule="evenodd" clip-rule="evenodd" d="M446.498 16C514.831 26.6667 665.037 95.4982 653.837 273.498C650.171 336.498 599.937 465.698 428.337 478.498C369.67 475.498 240.837 508.299 194.837 663.499C179.504 723.165 208.7 856.1 333.5 932.5C517 1000 749.998 956.5 858.498 792C865.503 779.177 874.651 766.523 884.65 752.692C916.757 708.281 957.635 651.736 964.498 538.5C963.979 529.493 963.558 520.121 963.123 510.425C958.941 417.314 953.416 294.286 846.999 176.998C808.023 134.041 715.01 67.1071 605.498 30.4981C580.022 20.4336 542.409 19.739 506.229 19.0708C484.893 18.6768 464.055 18.292 446.498 16ZM465.84 821.498C511.403 821.498 548.34 784.562 548.34 738.998C548.34 693.435 511.403 656.498 465.84 656.498C420.276 656.498 383.34 693.435 383.34 738.998C383.34 784.562 420.276 821.498 465.84 821.498Z" fill="black"/>
<path d="M653.837 273.498L653.338 273.467L653.338 273.469L653.837 273.498ZM446.498 16L446.562 15.5042L446.421 16.494L446.498 16ZM428.337 478.498L428.312 478.998L428.343 478.999L428.374 478.997L428.337 478.498ZM194.837 663.499L194.358 663.357L194.355 663.365L194.353 663.374L194.837 663.499ZM333.5 932.5L333.239 932.926L333.281 932.952L333.327 932.969L333.5 932.5ZM858.498 792L858.915 792.276L858.927 792.258L858.937 792.24L858.498 792ZM884.65 752.692L885.055 752.985L885.055 752.985L884.65 752.692ZM964.498 538.5L964.997 538.53L964.999 538.501L964.997 538.471L964.498 538.5ZM963.123 510.425L963.622 510.403L963.622 510.403L963.123 510.425ZM846.999 176.998L847.369 176.662L847.369 176.662L846.999 176.998ZM605.498 30.4981L605.314 30.9632L605.327 30.9681L605.339 30.9723L605.498 30.4981ZM506.229 19.0708L506.22 19.5707L506.229 19.0708ZM654.336 273.53C659.947 184.363 625.123 122.512 580.33 81.6298C535.554 40.7637 480.825 20.8523 446.575 15.506L446.421 16.494C480.504 21.8143 535.044 41.6521 579.655 82.3684C624.249 123.068 658.928 184.633 653.338 273.467L654.336 273.53ZM428.374 478.997C514.309 472.587 569.894 437.022 604.448 395.141C638.989 353.276 652.498 305.121 654.336 273.527L653.338 273.469C651.51 304.875 638.068 352.821 603.677 394.505C569.297 436.174 513.965 471.61 428.3 478L428.374 478.997ZM195.316 663.641C241.234 508.72 369.809 476.006 428.312 478.998L428.363 477.999C369.531 474.99 240.44 507.878 194.358 663.357L195.316 663.641ZM333.761 932.074C271.46 893.934 233.026 841.687 212.08 791.532C191.127 741.361 187.689 693.324 195.321 663.623L194.353 663.374C186.652 693.34 190.145 741.604 211.157 791.917C232.176 842.246 270.74 894.666 333.239 932.926L333.761 932.074ZM858.08 791.725C749.744 955.978 517.021 999.475 333.673 932.031L333.327 932.969C516.979 1000.52 750.252 957.023 858.915 792.276L858.08 791.725ZM884.245 752.399C874.25 766.224 865.082 778.904 858.059 791.761L858.937 792.24C865.924 779.45 875.052 766.822 885.055 752.985L884.245 752.399ZM963.999 538.47C957.144 651.565 916.331 708.016 884.245 752.399L885.055 752.985C917.183 708.545 958.126 651.907 964.997 538.53L963.999 538.47ZM962.623 510.448C963.059 520.143 963.48 529.518 963.999 538.529L964.997 538.471C964.478 529.468 964.058 520.099 963.622 510.403L962.623 510.448ZM846.628 177.334C952.917 294.48 958.442 417.345 962.623 510.448L963.622 510.403C959.44 417.284 953.915 294.092 847.369 176.662L846.628 177.334ZM605.339 30.9723C714.778 67.5564 807.715 134.446 846.628 177.334L847.369 176.662C808.331 133.636 715.243 66.6577 605.656 30.0239L605.339 30.9723ZM506.22 19.5707C524.314 19.9049 542.744 20.2455 559.833 21.7589C576.927 23.2726 592.643 25.9571 605.314 30.9632L605.682 30.0331C592.877 24.9746 577.049 22.2795 559.922 20.7628C542.791 19.2457 524.325 18.9049 506.238 18.5709L506.22 19.5707ZM446.433 16.4958C464.023 18.7921 484.892 19.1769 506.22 19.5707L506.238 18.5709C484.894 18.1767 464.086 17.7918 446.562 15.5042L446.433 16.4958ZM547.84 738.998C547.84 784.286 511.127 820.998 465.84 820.998V821.998C511.679 821.998 548.84 784.838 548.84 738.998H547.84ZM465.84 656.998C511.127 656.998 547.84 693.711 547.84 738.998H548.84C548.84 693.159 511.679 655.998 465.84 655.998V656.998ZM383.84 738.998C383.84 693.711 420.552 656.998 465.84 656.998V655.998C420 655.998 382.84 693.159 382.84 738.998H383.84ZM465.84 820.998C420.552 820.998 383.84 784.286 383.84 738.998H382.84C382.84 784.838 420 821.998 465.84 821.998V820.998Z" fill="black"/>
<path fill-rule="evenodd" clip-rule="evenodd" d="M434.5 958.5C366.167 947.833 266.302 881.52 277.502 703.52C281.168 640.519 331.402 511.319 503.002 498.519C561.668 501.519 690.502 468.719 736.502 313.519C751.835 253.852 751.302 115.419 626.502 39.019C525.668 6.85236 283.5 -16.9 115.5 205.5C110.521 214.615 104.715 224.157 98.461 234.436C67.6619 285.058 25.9809 353.565 18.5 477C18.7321 481.029 18.9561 485.055 19.1801 489.08C24.2659 580.465 29.3457 671.74 128 802.48C162.938 848.781 233.987 900.891 343.5 937.5C378.883 951.479 385.775 952.345 418.513 956.461C423.247 957.056 428.521 957.719 434.5 958.5ZM465.5 155.52C419.936 155.52 383 192.456 383 238.02C383 283.583 419.936 320.52 465.5 320.52C511.063 320.52 548 283.583 548 238.02C548 192.456 511.063 155.52 465.5 155.52Z" fill="#D9D9D9"/>
<path d="M277.502 703.52L278.001 703.551L278.001 703.549L277.502 703.52ZM434.5 958.5L434.435 958.996L434.577 958.006L434.5 958.5ZM503.002 498.519L503.027 498.02L502.996 498.018L502.965 498.021L503.002 498.519ZM736.502 313.519L736.981 313.661L736.984 313.652L736.986 313.644L736.502 313.519ZM626.502 39.019L626.763 38.5926L626.711 38.5611L626.654 38.5427L626.502 39.019ZM115.5 205.5L115.101 205.199L115.079 205.228L115.061 205.26L115.5 205.5ZM98.461 234.436L98.0338 234.176L98.0338 234.176L98.461 234.436ZM18.5 477L18.0009 476.97L17.9991 476.999L18.0008 477.029L18.5 477ZM19.1801 489.08L18.6809 489.108L18.6809 489.108L19.1801 489.08ZM128 802.48L128.399 802.179L128.399 802.179L128 802.48ZM343.5 937.5L343.684 937.035L343.671 937.03L343.659 937.026L343.5 937.5ZM418.513 956.461L418.45 956.957L418.45 956.957L418.513 956.461ZM277.003 703.488C271.396 792.589 293.587 853.796 325.785 894.072C357.978 934.34 400.144 953.643 434.423 958.994L434.577 958.006C400.522 952.69 358.589 933.503 326.566 893.448C294.549 853.399 272.407 792.45 278.001 703.551L277.003 703.488ZM502.965 498.021C417.03 504.431 361.445 539.995 326.891 581.876C292.35 623.742 278.841 671.896 277.003 703.49L278.001 703.549C279.829 672.143 293.271 624.197 327.662 582.513C362.042 540.844 417.374 505.408 503.039 499.018L502.965 498.021ZM736.022 313.377C690.105 468.298 561.53 501.012 503.027 498.02L502.976 499.019C561.807 502.027 690.898 469.14 736.981 313.661L736.022 313.377ZM626.241 39.4455C750.774 115.682 751.324 253.834 736.018 313.395L736.986 313.644C752.347 253.871 751.83 115.156 626.763 38.5926L626.241 39.4455ZM115.899 205.801C283.717 -16.3578 525.617 7.36088 626.35 39.4954L626.654 38.5427C525.719 6.34383 283.283 -17.4423 115.101 205.199L115.899 205.801ZM98.8882 234.696C105.141 224.419 110.953 214.866 115.939 205.74L115.061 205.26C110.089 214.363 104.29 223.894 98.0338 234.176L98.8882 234.696ZM18.9991 477.03C26.4726 353.718 68.1032 285.294 98.8882 234.696L98.0338 234.176C67.2205 284.821 25.4892 353.413 18.0009 476.97L18.9991 477.03ZM19.6793 489.053C19.4553 485.027 19.2313 481.001 18.9992 476.971L18.0008 477.029C18.2329 481.057 18.4569 485.083 18.6809 489.108L19.6793 489.053ZM128.399 802.179C79.1052 736.853 53.202 681.404 38.9832 630.886C24.7625 580.362 22.2225 534.748 19.6793 489.053L18.6809 489.108C21.2236 534.797 23.7663 580.513 38.0206 631.157C52.2767 681.808 78.2405 737.367 127.601 802.782L128.399 802.179ZM343.659 937.026C234.21 900.438 163.258 848.376 128.399 802.179L127.601 802.782C162.617 849.187 233.765 901.344 343.341 937.974L343.659 937.026ZM418.575 955.965C402.199 953.906 392.321 952.664 382.116 950.193C371.914 947.723 361.372 944.023 343.684 937.035L343.316 937.965C361.011 944.956 371.607 948.678 381.881 951.165C392.152 953.651 402.089 954.9 418.45 956.957L418.575 955.965ZM434.565 958.004C428.584 957.223 423.309 956.56 418.575 955.965L418.45 956.957C423.184 957.552 428.457 958.215 434.435 958.996L434.565 958.004ZM383.5 238.02C383.5 192.732 420.213 156.02 465.5 156.02V155.02C419.66 155.02 382.5 192.18 382.5 238.02H383.5ZM465.5 320.02C420.213 320.02 383.5 283.307 383.5 238.02H382.5C382.5 283.859 419.66 321.02 465.5 321.02V320.02ZM547.5 238.02C547.5 283.307 510.787 320.02 465.5 320.02V321.02C511.34 321.02 548.5 283.859 548.5 238.02H547.5ZM465.5 156.02C510.787 156.02 547.5 192.732 547.5 238.02H548.5C548.5 192.18 511.34 155.02 465.5 155.02V156.02Z" fill="black"/>
<circle cx="490" cy="490" r="479.5" stroke="black" stroke-width="21"/>
</svg>
